<?xml version="1.0" encoding="UTF-8"?><svg xmlns="http://www.w3.org/2000/svg" viewBox="0 0 702.34 330.38"><defs><style>.d{fill:#ffc500;}.e{fill:#e69b55;}.f{fill:#a700ff;}.g{fill:#b448ff;}.h{fill:#cd72aa;}.i{fill:#241f20;}</style></defs><g id="a"/><g id="b"><g id="c"><path class="d" d="M47.9,89.88h-15.3C14.7,89.88,0,104.58,0,122.48v48.9c0,17.9,14.7,32.6,32.6,32.6h15.3c17.9,0,32.6-14.7,32.6-32.6v-48.9c0-17.9-14.7-32.6-32.6-32.6Z"/><path class="d" d="M159.8,118.88h-58.6c-17.9,0-32.6,14.7-32.6,32.6v95.5c0,17.9,14.7,32.6,32.6,32.6h58.6c17.9,0,32.6-14.7,32.6-32.6v-95.5c0-17.9-14.7-32.6-32.6-32.6Z"/><g><path class="d" d="M281.4,330.38h-116.6c-19.3,0-35-15.8-35-35V130.98c0-19.3,15.8-35,35-35h116.6c19.3,0,35,15.8,35,35v164.4c.1,19.3-15.7,35-35,35Z"/><path class="e" d="M391.8,272.58h-116.6c-19.3,0-35-15.8-35-35V73.18c0-19.3,15.8-35,35-35h116.6c19.3,0,35,15.8,35,35V237.58c0,19.2-15.8,35-35,35Z"/><path class="h" d="M521.6,272.58h-116.6c-19.3,0-35-15.8-35-35V73.18c0-19.3,15.8-35,35-35h116.6c19.3,0,35,15.8,35,35V237.58c0,19.2-15.7,35-35,35Z"/><path class="g" d="M631.9,330.38h-116.6c-19.3,0-35-15.8-35-35V130.98c0-19.3,15.8-35,35-35h116.6c19.3,0,35,15.8,35,35v164.4c.1,19.3-15.7,35-35,35Z"/></g><ellipse class="i" cx="582.6" cy="157.28" rx="11.3" ry="11.8"/><ellipse class="i" cx="636.6" cy="157.28" rx="11" ry="11.5"/><path class="g" d="M633.3,109.38h-.3c-3.9-.2-6.8-3.5-6.7-7.3,2.8-60.6,51.3-87.4,66.1-94.1,3.5-1.6,7.7-.1,9.3,3.5,1.6,3.5,.1,7.7-3.5,9.3-7.2,3.3-21,10.7-33.4,23.8-15.2,16.1-23.5,35.7-24.5,58.2-.2,3.6-3.3,6.6-7,6.6Z"/><path class="g" d="M587.1,107.28c-3.8,0-6.9-3.1-7-6.9-.3-19.5,2.1-68.2,30.5-98.2,2.7-2.8,7.1-2.9,9.9-.3,2.8,2.7,2.9,7.1,.3,9.9-24.9,26.3-27,70.6-26.7,88.4,.1,3.9-3,7-6.9,7.1h-.1Z"/><path class="i" d="M642.3,226.58c0,2.2-1.8,4-4,4s-4-1.8-4-4c0-13.2-10.7-23.9-23.9-23.9s-23.9,10.7-23.9,23.9c0,2.2-1.8,4-4,4s-4-1.8-4-4c0-17.6,14.3-31.9,31.9-31.9s32,14.3,31.9,31.9Z"/><circle class="f" cx="545.2" cy="187.38" r="16.6"/></g></g></svg>