<?xml version="1.0" encoding="utf-8"?>
<!-- Generator: Adobe Illustrator 26.3.1, SVG Export Plug-In . SVG Version: 6.00 Build 0)  -->
<svg version="1.1" id="Layer_1" xmlns="http://www.w3.org/2000/svg" xmlns:xlink="http://www.w3.org/1999/xlink" x="0px" y="0px"
	 viewBox="0 0 1637.3 696.2" style="enable-background:new 0 0 1637.3 696.2;" xml:space="preserve">
<style type="text/css">
	.st0{fill:#FFC500;}
	.st1{fill:#E69B55;}
	.st2{fill:#CD72AA;}
	.st3{fill:#B448FF;}
	.st4{fill:#241F20;}
	.st5{fill:#A700FF;}
	.st6{fill:#FFFFFF;}
</style>
<g>
	<g>
		<path d="M915.1,271.9c5.8,0,11.3,0.9,16.4,2.6s9.6,4.2,13.5,7.6c3.8,3.3,6.9,7.5,9.1,12.6c2.2,5.1,3.4,11,3.4,17.8
			c0,6.8-1.1,12.7-3.3,17.8c-2.2,5.1-5.2,9.3-9,12.6c-3.8,3.3-8.3,5.8-13.5,7.6s-10.7,2.6-16.6,2.6c-5.8,0-11.3-0.9-16.4-2.6
			s-9.6-4.2-13.5-7.6c-3.8-3.3-6.9-7.5-9.1-12.6c-2.2-5.1-3.4-11-3.4-17.8c0-6.8,1.1-12.7,3.4-17.8c2.2-5.1,5.3-9.3,9.1-12.6
			c3.8-3.3,8.3-5.8,13.5-7.6S909.3,271.9,915.1,271.9z M915.3,289.7c-4.1,0-7.2,1.9-9.5,5.7c-2.3,3.8-3.4,9.5-3.4,17.1
			c0,7.2,1.1,12.7,3.4,16.6c2.3,3.9,5.5,5.8,9.5,5.8c4.1,0,7.2-1.9,9.4-5.8s3.3-9.4,3.3-16.6c0-7.6-1.1-13.3-3.3-17.1
			C922.5,291.6,919.4,289.7,915.3,289.7z"/>
		<path d="M1023.3,353c-7.7,0-13.7-2.1-17.9-6.4c-4.3-4.3-7.1-10.2-8.6-17.8v61.6h-29.6V273.5h29.6v22.3c1.5-7.5,4.3-13.3,8.6-17.5
			c4.3-4.2,10.2-6.3,17.9-6.3c3.9,0,7.8,0.8,11.7,2.4c3.8,1.6,7.2,4.1,10.2,7.3c3,3.3,5.4,7.5,7.2,12.5c1.8,5.1,2.7,11,2.7,17.8
			c0,7.1-0.9,13.2-2.7,18.3c-1.8,5.1-4.2,9.4-7.2,12.8c-3,3.4-6.4,5.9-10.2,7.5C1031.2,352.2,1027.3,353,1023.3,353z M1023.3,312.3
			c0-6.5-1.3-11.6-3.8-15c-2.5-3.5-5.6-5.2-9.1-5.2c-3.5,0-6.6,1.7-9.1,5.2c-2.5,3.5-3.8,8.5-3.8,15c0,6.5,1.3,11.6,3.8,15
			c2.5,3.5,5.6,5.2,9.1,5.2c3.5,0,6.6-1.7,9.1-5.2C1022.1,323.9,1023.3,318.8,1023.3,312.3z"/>
		<path d="M1143.1,320.9c-0.1,3.6-1,7.4-2.6,11.2c-1.6,3.8-4,7.3-7.2,10.4c-3.2,3.1-7.2,5.6-12.1,7.6c-4.9,2-10.7,3-17.5,3
			c-5.8,0-11.3-0.9-16.4-2.6s-9.6-4.2-13.5-7.6c-3.8-3.3-6.9-7.5-9.1-12.6c-2.2-5.1-3.4-11-3.4-17.8c0-6.8,1.1-12.7,3.4-17.8
			c2.2-5.1,5.3-9.3,9.1-12.6c3.8-3.3,8.3-5.8,13.5-7.6s10.6-2.6,16.4-2.6c6.4,0,12.1,1,17.1,3.1c4.9,2.1,9,4.9,12.3,8.5
			c3.3,3.6,5.8,7.9,7.5,12.9c1.7,5,2.6,10.4,2.6,16.2H1091c0,6.9,1,12.2,3.1,15.9c2.1,3.7,5.3,5.6,9.7,5.6c4.2,0,7-1.3,8.7-3.9
			c1.6-2.6,2.6-5.7,3-9.4H1143.1z M1103,290.5c-3.2,0-5.8,1.1-7.7,3.4c-1.9,2.2-3.2,5.7-3.8,10.5h22.6c0-3.6-0.8-6.9-2.3-9.7
			C1110.2,291.9,1107.3,290.5,1103,290.5z"/>
		<path d="M1182.5,351.4h-29.6v-77.9h29.6v22.4c1.7-7.8,4.5-13.7,8.4-17.8c3.9-4.1,9.6-6.2,16.8-6.2c7.1,0,12.9,2.1,17.6,6.2
			c4.7,4.1,7,10.2,7,18.3v55h-29.6v-42.2c0-4.2-0.8-7.5-2.3-10.1c-1.5-2.5-4.1-3.8-7.9-3.8c-3.7,0-6.4,1.3-7.9,3.8
			c-1.5,2.5-2.3,6-2.3,10.2V351.4z"/>
		<path d="M893.5,505.4l-23.9-77.9h29.5l9.4,39.6l13.6-39.6h15.6l13.9,39.1l9.2-39.1h27.6l-23.9,77.9h-24l-12.2-36l-11.5,36H893.5z"
			/>
		<path d="M1069.2,474.9c-0.1,3.6-1,7.4-2.6,11.2c-1.6,3.8-4,7.3-7.2,10.4c-3.2,3.1-7.2,5.6-12.1,7.6c-4.9,2-10.7,3-17.5,3
			c-5.8,0-11.3-0.9-16.4-2.6s-9.6-4.2-13.5-7.6c-3.8-3.3-6.9-7.5-9.1-12.6c-2.2-5.1-3.4-11-3.4-17.8c0-6.8,1.1-12.7,3.4-17.8
			c2.2-5.1,5.3-9.3,9.1-12.6c3.8-3.3,8.3-5.8,13.5-7.6s10.6-2.6,16.4-2.6c6.4,0,12.1,1,17.1,3.1c4.9,2.1,9,4.9,12.3,8.5
			c3.3,3.6,5.8,7.9,7.5,12.9c1.7,5,2.6,10.4,2.6,16.2h-52.2c0,6.9,1,12.2,3.1,15.9c2.1,3.7,5.3,5.6,9.7,5.6c4.2,0,7-1.3,8.7-3.9
			c1.6-2.6,2.6-5.7,3-9.4H1069.2z M1029.1,444.5c-3.2,0-5.8,1.1-7.7,3.4c-1.9,2.2-3.2,5.7-3.8,10.5h22.6c0-3.6-0.8-6.9-2.3-9.7
			C1036.3,445.9,1033.4,444.5,1029.1,444.5z"/>
		<path d="M1135.1,507c-7.7,0-13.7-2.1-17.9-6.4c-4.3-4.3-7.1-10.2-8.6-17.8v22.6H1079V388.5h29.6v61.3c1.5-7.5,4.3-13.3,8.6-17.5
			c4.3-4.2,10.2-6.3,17.9-6.3c3.9,0,7.8,0.8,11.7,2.4c3.8,1.6,7.2,4.1,10.2,7.3c3,3.3,5.4,7.5,7.2,12.5c1.8,5.1,2.7,11,2.7,17.8
			c0,7.1-0.9,13.2-2.7,18.3c-1.8,5.1-4.2,9.4-7.2,12.8c-3,3.4-6.4,5.9-10.2,7.5C1143,506.2,1139.1,507,1135.1,507z M1135.1,466.3
			c0-6.5-1.3-11.6-3.8-15c-2.5-3.5-5.6-5.2-9.1-5.2c-3.5,0-6.6,1.7-9.1,5.2c-2.5,3.5-3.8,8.5-3.8,15c0,6.5,1.3,11.6,3.8,15
			c2.5,3.5,5.6,5.2,9.1,5.2c3.5,0,6.6-1.7,9.1-5.2C1133.8,477.8,1135.1,472.8,1135.1,466.3z"/>
		<path d="M1264.2,505.4v-22.3c-1.5,7.5-4.3,13.3-8.6,17.5c-4.3,4.2-10.2,6.3-17.9,6.3c-4,0-7.8-0.8-11.7-2.4
			c-3.8-1.6-7.2-4.1-10.2-7.3s-5.4-7.5-7.2-12.5c-1.8-5.1-2.7-11-2.7-17.8c0-7.1,0.9-13.2,2.7-18.3c1.8-5.1,4.2-9.4,7.2-12.8
			c3-3.4,6.4-5.9,10.2-7.5c3.8-1.6,7.7-2.4,11.7-2.4c7.7,0,13.7,2.1,17.9,6.4c4.3,4.3,7.1,10.2,8.6,17.8v-61.6h29.6v116.9H1264.2z
			 M1237.7,466.6c0,6.5,1.3,11.6,3.8,15c2.5,3.5,5.6,5.2,9.1,5.2c3.5,0,6.6-1.7,9.1-5.2c2.5-3.5,3.8-8.5,3.8-15
			c0-6.5-1.3-11.6-3.8-15c-2.5-3.5-5.6-5.2-9.1-5.2c-3.5,0-6.6,1.7-9.1,5.2C1239,455,1237.7,460,1237.7,466.6z"/>
		<path d="M1345.9,425.9c5.8,0,11.3,0.9,16.4,2.6s9.6,4.2,13.5,7.6c3.8,3.3,6.9,7.5,9.1,12.6c2.2,5.1,3.4,11,3.4,17.8
			c0,6.8-1.1,12.7-3.3,17.8c-2.2,5.1-5.2,9.3-9,12.6c-3.8,3.3-8.3,5.8-13.5,7.6s-10.7,2.6-16.6,2.6c-5.8,0-11.3-0.9-16.4-2.6
			s-9.6-4.2-13.5-7.6c-3.8-3.3-6.9-7.5-9.1-12.6c-2.2-5.1-3.4-11-3.4-17.8c0-6.8,1.1-12.7,3.4-17.8c2.2-5.1,5.3-9.3,9.1-12.6
			c3.8-3.3,8.3-5.8,13.5-7.6S1340.1,425.9,1345.9,425.9z M1346,443.7c-4.1,0-7.2,1.9-9.5,5.7c-2.3,3.8-3.4,9.5-3.4,17.1
			c0,7.2,1.1,12.7,3.4,16.6c2.3,3.9,5.5,5.8,9.5,5.8c4.1,0,7.2-1.9,9.4-5.8s3.3-9.4,3.3-16.6c0-7.6-1.1-13.3-3.3-17.1
			C1353.2,445.6,1350.1,443.7,1346,443.7z"/>
		<path d="M1394.5,466.4c0-6.8,1.1-12.7,3.4-17.8c2.2-5.1,5.3-9.3,9.1-12.6c3.8-3.3,8.3-5.8,13.5-7.6s10.6-2.6,16.4-2.6
			c9.4,0,17.7,2.2,25,6.5s12.4,10.8,15.2,19.3l-26.3,9.4c-0.9-5.3-2.5-9.4-4.6-12.3c-2.1-2.9-5.2-4.4-9.1-4.4
			c-4.1,0-7.2,1.8-9.5,5.5c-2.3,3.6-3.4,9.1-3.4,16.5c0,6.9,1.1,12.2,3.4,16c2.3,3.8,5.5,5.7,9.5,5.7c4.1,0,7.1-1.6,9.2-4.8
			c2.1-3.2,3.6-7.5,4.5-12.8l27,8.9c-2.6,9.1-7.6,16-15,20.7c-7.4,4.6-16,6.9-25.8,6.9c-5.8,0-11.3-0.9-16.4-2.6s-9.6-4.2-13.5-7.6
			c-3.8-3.3-6.9-7.5-9.1-12.6C1395.6,479.1,1394.5,473.2,1394.5,466.4z"/>
		<path d="M1517.7,443.5c-2.8,0-4.9,0.5-6.2,1.6c-1.3,1-1.9,2.5-1.9,4.4c0,2.2,1.2,3.8,3.6,4.9c2.4,1.1,6.4,2,12,2.7
			c11.1,1.4,19,4,23.6,7.8c4.6,3.8,6.9,9.4,6.9,16.5c0,7.7-2.8,13.9-8.5,18.6c-5.7,4.7-14.5,7-26.4,7c-12.8,0-22.4-2.6-28.9-7.8
			c-6.5-5.2-9.7-12.3-9.7-21.2h26.8c0,3.5,1.1,6.2,3.4,8.1c2.2,1.9,5.3,2.8,9.1,2.8c3.1,0,5.4-0.5,6.8-1.6c1.4-1,2.1-2.4,2.1-4.2
			c0-1.9-1.1-3.4-3.4-4.7c-2.3-1.2-6.9-2.3-13.7-3.1c-10.5-1.3-18-3.9-22.4-7.8c-4.4-3.8-6.6-9.4-6.6-16.5c0-7.5,2.8-13.5,8.5-18.2
			c5.7-4.6,14.2-6.9,25.6-6.9c5.2,0,10,0.6,14.5,1.9c4.5,1.2,8.3,3,11.5,5.4c3.2,2.3,5.8,5.2,7.6,8.7c1.9,3.4,2.8,7.3,2.8,11.5H1528
			c0-3.4-1-5.9-2.9-7.5C1523.2,444.3,1520.7,443.5,1517.7,443.5z"/>
	</g>
	<g>
		<path class="st0" d="M174.2,260.6h-15.3c-17.9,0-32.6,14.7-32.6,32.6v48.9c0,17.9,14.7,32.6,32.6,32.6h15.3
			c17.9,0,32.6-14.7,32.6-32.6v-48.9C206.8,275.3,192.1,260.6,174.2,260.6z"/>
	</g>
	<g>
		<path class="st0" d="M286.1,289.6h-58.6c-17.9,0-32.6,14.7-32.6,32.6v95.5c0,17.9,14.7,32.6,32.6,32.6h58.6
			c17.9,0,32.6-14.7,32.6-32.6v-95.5C318.7,304.3,304,289.6,286.1,289.6z"/>
	</g>
	<g>
		<path class="st0" d="M407.7,501.2H291.1c-19.3,0-35-15.8-35-35V301.8c0-19.3,15.8-35,35-35h116.6c19.3,0,35,15.8,35,35v164.4
			C442.7,485.4,427,501.2,407.7,501.2z"/>
		<path class="st1" d="M518.1,443.3H401.4c-19.3,0-35-15.8-35-35V243.9c0-19.3,15.8-35,35-35h116.6c19.3,0,35,15.8,35,35v164.4
			C553.1,427.5,537.3,443.3,518.1,443.3z"/>
		<path class="st2" d="M647.9,443.3H531.3c-19.3,0-35-15.8-35-35V243.9c0-19.3,15.8-35,35-35h116.6c19.3,0,35,15.8,35,35v164.4
			C682.9,427.5,667.1,443.3,647.9,443.3z"/>
		<path class="st3" d="M758.2,501.2H641.6c-19.3,0-35-15.8-35-35V301.8c0-19.3,15.8-35,35-35h116.6c19.3,0,35,15.8,35,35v164.4
			C793.2,485.4,777.5,501.2,758.2,501.2z"/>
	</g>
	<g>
		<ellipse class="st4" cx="708.9" cy="328" rx="11.3" ry="11.8"/>
	</g>
	<g>
		<ellipse class="st4" cx="762.9" cy="328" rx="11" ry="11.5"/>
	</g>
	<g>
		<path class="st3" d="M759.5,280.1c-0.1,0-0.2,0-0.3,0c-3.9-0.2-6.8-3.5-6.7-7.3c2.8-60.6,51.3-87.4,66.1-94.1
			c3.5-1.6,7.7-0.1,9.3,3.5c1.6,3.5,0.1,7.7-3.5,9.3c-7.2,3.3-21,10.7-33.4,23.8c-15.2,16.1-23.5,35.7-24.5,58.2
			C766.4,277.1,763.3,280.1,759.5,280.1z"/>
	</g>
	<g>
		<path class="st3" d="M713.3,278c-3.8,0-6.9-3.1-7-6.9c-0.3-19.5,2.1-68.2,30.5-98.2c2.7-2.8,7.1-2.9,9.9-0.3
			c2.8,2.7,2.9,7.1,0.3,9.9c-24.9,26.3-27,70.6-26.7,88.4c0.1,3.9-3,7-6.9,7.1C713.4,278,713.4,278,713.3,278z"/>
	</g>
	<g>
		<path class="st4" d="M736.7,401.3c-17.6,0-31.9-14.3-31.9-31.9c0-2.2,1.8-4,4-4s4,1.8,4,4c0,13.2,10.7,23.9,23.9,23.9
			s23.9-10.7,23.9-23.9c0-2.2,1.8-4,4-4s4,1.8,4,4C768.6,387,754.3,401.3,736.7,401.3z"/>
	</g>
	<g>
		<circle class="st5" cx="671.5" cy="358.1" r="16.6"/>
	</g>
</g>
</svg>
